# xmcd
#
# Track frame offsets: 
#        150
#        21375
#        36105
#        55179
#        83262
#        102317
#        125110
#        147124
#        166642
#        188487
#        215357
#        235950
#        253468
#        269516
#        294529
#        305376
#        320899
#
# Disc length: 4634 seconds
#
# Revision: 0
# Processed by: cddbd v1.5.2PL0 Copyright (c) Steve Scherf et al.
# Submitted via: ExactAudioCopy v0.95b1
#
DISCID=f6121811
DTITLE=Various Artist - Blues Planet. The Best Of Evening Music 
DYEAR=2001
DGENRE=Blues
TTITLE0=Otis Rush - Little Red Rooster
TTITLE1=Peter Green - Apostle
TTITLE2=Albert Collins - Lights Are On But Nobody's Home
TTITLE3=Tinsley Ellis - Early In The Morning
TTITLE4=Clarence Brown - Better Off With The Blues
TTITLE5=Lonnie Mack - Falling Back In Love With You
TTITLE6=Ronnie Earl - Through Floods And Storms
TTITLE7=John Campbell - Angel Of Sorrow
TTITLE8=Koko Taylor - I Cried Like A Baby
TTITLE9=Junior Wells - Don't You Lie To Me
TTITLE10=C.J. Chenier - Richest Man 
TTITLE11=Luther Allison - Just Memories
TTITLE12=Jimmy Rushing - Did You Ever
TTITLE13=King B.B. - Thril Is Gone
TTITLE14=John Lee Hooker - No Shoes
TTITLE15=NoName1
TTITLE16=NoName2
EXTD=
EXTT0=
EXTT1=
EXTT2=
EXTT3=
EXTT4=
EXTT5=
EXTT6=
EXTT7=
EXTT8=
EXTT9=
EXTT10=
EXTT11=
EXTT12=
EXTT13=
EXTT14=
EXTT15=
EXTT16=
PLAYORDER=
